<?xml version="1.0" standalone="no"?>
<!DOCTYPE svg PUBLIC "-//W3C//DTD SVG 20010904//EN"
 "http://www.w3.org/TR/2001/REC-SVG-20010904/DTD/svg10.dtd">
<svg version="1.0" xmlns="http://www.w3.org/2000/svg"
 width="1360.000000pt" height="371.000000pt" viewBox="0 0 1360.000000 371.000000"
 preserveAspectRatio="xMidYMid meet">

<g transform="translate(0.000000,371.000000) scale(0.100000,-0.100000)"
fill="#000000" stroke="none">
<path d="M930 1855 l0 -1245 1555 0 1555 0 0 1245 0 1245 -1555 0 -1555 0 0
-1245z m2370 745 c20 -5 50 -24 67 -42 60 -62 63 -81 63 -363 0 -352 3 -345
-215 -395 -265 -60 -920 -211 -957 -221 l-38 -10 0 -84 c0 -47 3 -85 6 -85 12
0 1111 -110 1157 -116 l47 -6 0 -89 0 -89 -945 0 -945 0 0 755 0 755 863 0
c535 0 875 -4 897 -10z"/>
<path d="M2223 2394 c-10 -4 -13 -78 -13 -321 l0 -315 23 5 c12 4 198 45 412
92 406 89 430 95 470 127 25 19 25 21 25 188 0 164 -1 170 -24 197 l-24 28
-429 2 c-235 1 -434 0 -440 -3z"/>
<path d="M4300 1845 l0 -1255 4160 0 4160 0 0 1255 0 1255 -4160 0 -4160 0 0
-1255z m8240 5 l0 -1170 -4075 0 -4075 0 0 1170 0 1170 4075 0 4075 0 0 -1170z"/>
<path d="M8990 1835 l0 -715 535 0 535 0 0 150 0 150 -375 0 -375 0 0 155 0
155 330 0 330 0 0 140 0 140 -330 0 -330 0 0 125 0 125 355 0 355 0 0 145 0
145 -515 0 -515 0 0 -715z"/>
<path d="M10210 1835 l0 -715 495 0 495 0 0 150 0 150 -335 0 -335 0 0 565 0
565 -160 0 -160 0 0 -715z"/>
<path d="M10940 2405 l0 -145 200 0 200 0 0 -570 0 -570 165 0 165 0 0 570 0
570 205 0 205 0 0 145 0 145 -570 0 -570 0 0 -145z"/>
<path d="M4770 1835 l0 -705 155 0 155 0 0 271 0 271 194 -4 c274 -4 275 -5
287 -268 4 -91 13 -189 20 -217 l12 -53 169 0 168 0 0 32 c0 19 -9 41 -22 55
-21 22 -23 37 -30 198 -4 95 -12 193 -18 217 -16 60 -54 123 -91 149 l-30 21
54 48 c37 34 63 68 83 112 26 58 29 73 29 173 0 102 -2 115 -31 175 -34 72
-105 150 -165 180 -87 45 -142 50 -551 50 l-388 0 0 -705z m715 424 c22 -6 52
-22 67 -36 51 -48 60 -173 16 -228 -42 -54 -67 -59 -285 -63 l-203 -4 0 171 0
171 183 0 c100 0 200 -5 222 -11z"/>
<path d="M6273 1853 c-133 -379 -244 -696 -248 -706 -7 -16 3 -17 161 -15
l167 3 46 138 45 137 240 -2 239 -3 41 -135 41 -135 168 -3 c140 -2 167 0 167
12 0 8 -13 52 -29 98 -16 46 -122 349 -234 673 -113 325 -209 598 -212 608 -6
15 -25 17 -179 17 l-172 0 -241 -687z m488 57 c37 -118 66 -216 65 -217 -2 -2
-66 -4 -144 -6 -114 -2 -142 1 -142 11 0 29 143 456 148 442 3 -8 36 -112 73
-230z"/>
<path d="M7093 2527 c7 -18 387 -1385 387 -1392 0 -3 65 -5 144 -5 129 0 145
2 150 18 11 40 186 921 187 943 1 45 13 -5 109 -481 l96 -475 149 0 149 0 22
80 c12 44 97 352 189 685 92 333 170 613 172 623 5 16 -7 17 -155 17 -144 0
-161 -2 -166 -17 -6 -23 -182 -802 -194 -863 -8 -39 -10 -42 -15 -20 -6 21
-107 520 -165 810 l-17 85 -165 0 -165 0 -16 -85 c-98 -520 -151 -798 -156
-810 -3 -8 -11 14 -18 50 -6 36 -51 242 -100 458 l-89 392 -169 0 c-134 0
-168 -3 -164 -13z"/>
<path d="M12837 966 c-49 -18 -74 -41 -100 -91 -45 -86 -20 -191 60 -251 80
-61 173 -53 249 21 153 148 -6 393 -209 321z m163 -38 c48 -33 72 -70 77 -121
7 -61 -11 -109 -57 -151 -67 -60 -153 -60 -220 0 -21 20 -44 51 -51 71 -25 76
7 163 75 204 45 28 133 26 176 -3z"/>
<path d="M12830 784 c0 -114 0 -115 23 -112 19 3 22 9 23 48 1 36 5 46 20 48
15 2 25 -9 41 -48 16 -37 27 -50 42 -50 26 0 26 9 0 63 l-21 44 26 26 c55 55
15 97 -93 97 l-61 0 0 -116z m127 60 c7 -20 -13 -34 -49 -34 -23 0 -28 4 -28
25 0 22 4 25 35 25 23 0 38 -6 42 -16z"/>
</g>
</svg>
