<?xml version="1.0" standalone="no"?>
<!DOCTYPE svg PUBLIC "-//W3C//DTD SVG 20010904//EN"
 "http://www.w3.org/TR/2001/REC-SVG-20010904/DTD/svg10.dtd">
<svg version="1.0" xmlns="http://www.w3.org/2000/svg"
 width="300.000000pt" height="284.000000pt" viewBox="0 0 300.000000 284.000000"
 preserveAspectRatio="xMidYMid meet">

<g transform="translate(0.000000,284.000000) scale(0.100000,-0.100000)"
fill="#000000" stroke="none">
<path d="M0 2705 l0 -135 1500 0 1500 0 0 135 0 135 -1500 0 -1500 0 0 -135z"/>
<path d="M1230 2371 c-124 -41 -217 -134 -260 -260 -20 -61 -21 -75 -18 -684
l3 -622 28 -59 c56 -120 139 -192 257 -222 197 -50 400 84 449 297 7 27 11
270 11 624 0 617 -2 640 -49 733 -34 67 -99 130 -167 163 -55 27 -79 33 -147
36 -45 1 -93 -1 -107 -6z m157 -306 c12 -8 30 -36 40 -62 17 -44 18 -88 18
-563 0 -459 -2 -521 -17 -570 -22 -70 -54 -102 -103 -102 -46 0 -78 29 -102
91 -16 42 -18 93 -18 581 l0 535 22 42 c13 23 31 47 40 52 27 15 96 13 120 -4z"/>
<path d="M0 1425 l0 -915 125 0 125 0 1 428 1 427 18 -60 c10 -33 60 -225 111
-427 l92 -368 123 0 124 0 0 915 0 915 -125 0 -125 0 -2 -385 -3 -384 -106
382 -106 382 -126 3 -127 3 0 -916z"/>
<path d="M1930 1425 l0 -915 125 0 125 0 0 433 1 432 45 -140 c24 -77 56 -177
70 -223 l25 -83 126 3 125 3 67 212 c36 117 68 213 71 213 3 0 5 -190 5 -422
l0 -423 125 0 125 0 3 913 2 912 -128 0 -128 0 -129 -467 c-70 -258 -131 -473
-134 -480 -4 -7 -60 180 -125 415 -65 235 -125 451 -133 480 l-14 52 -125 0
-124 0 0 -915z"/>
<path d="M0 140 l0 -130 1500 0 1500 0 0 130 0 130 -1500 0 -1500 0 0 -130z"/>
</g>
</svg>
