<svg xmlns="http://www.w3.org/2000/svg" width="742" height="308" viewBox="0 0 742 308" version="1.1"><path d="M 432.658 115.251 C 430.054 117.855, 428.015 123.552, 428.006 128.250 L 428 131 434.500 131 L 441 131 441 128.500 C 441 125.369, 441.620 125.378, 446.320 128.571 C 451.383 132.012, 456.228 132.736, 459.564 130.550 C 462.788 128.437, 465 123.344, 465 118.032 L 465 114 458.500 114 L 452 114 452 116.500 C 452 119.637, 451.383 119.624, 446.624 116.390 C 444.511 114.955, 441.066 113.550, 438.968 113.269 L 435.152 112.757 432.658 115.251 M 525.191 134.025 C 521.170 135.078, 515.618 137.172, 512.851 138.677 C 506.092 142.356, 498.663 150.695, 495.856 157.753 L 493.571 163.500 493.535 173.500 L 493.500 183.500 496.385 189.747 C 501.271 200.326, 511.357 207.696, 524.869 210.560 C 542.995 214.402, 563.184 209.869, 573.385 199.667 C 587.861 185.192, 588.903 159.967, 575.633 145.279 C 565.434 133.990, 543.773 129.157, 525.191 134.025 M 610.734 133.088 C 601.142 135.348, 594.083 141.642, 592.039 149.759 C 589.685 159.108, 592.953 165.282, 606.509 177.101 C 617.310 186.519, 618.774 188.980, 614.826 191.093 C 611.647 192.794, 601.300 191.544, 593.996 188.576 L 587.803 186.060 588.436 193.280 C 588.783 197.251, 589.316 202.610, 589.619 205.189 L 590.171 209.877 595.835 210.689 C 598.951 211.135, 606.675 211.500, 613 211.499 L 624.500 211.498 630.260 208.800 C 637.450 205.432, 641.634 200.940, 643.538 194.545 C 646.753 183.750, 643.471 178.270, 624.170 162.195 C 618.595 157.552, 617.695 154.769, 621.168 152.910 C 624.056 151.365, 633.413 152.391, 639.251 154.893 C 641.762 155.970, 643.970 156.697, 644.158 156.510 C 644.346 156.322, 644.090 151.225, 643.589 145.182 L 642.678 134.195 635.298 133.098 C 626.729 131.823, 616.121 131.819, 610.734 133.088 M 340.603 137.750 C 338.007 143.259, 312.552 191.085, 306.876 201.119 C 304.194 205.859, 302 210.021, 302 210.369 C 302 210.716, 308.637 210.989, 316.750 210.975 L 331.500 210.949 336.184 200.975 L 340.867 191 353.321 191 L 365.774 191 369.049 201 L 372.324 211 386.769 211 L 401.214 211 400.490 209.250 C 398.291 203.937, 380.694 156.679, 377.031 146.250 L 372.728 134 357.549 134 L 342.370 134 340.603 137.750 M 405.999 143.725 C 405.997 155.522, 403.226 205.250, 402.383 208.610 L 401.783 211 414.892 211 L 428 211 428 198.151 C 428 191.084, 428.289 181.888, 428.641 177.717 L 429.282 170.132 436.641 182.816 C 440.688 189.792, 445.912 198.981, 448.249 203.236 L 452.500 210.972 467.522 210.986 L 482.545 211 484.389 176.750 C 485.404 157.912, 486.454 140.588, 486.722 138.250 L 487.210 134 474.758 134 L 462.306 134 461.657 145.250 C 461.301 151.438, 461.007 160.411, 461.005 165.191 C 461.002 169.971, 460.643 174.102, 460.207 174.372 C 459.771 174.641, 454.421 165.781, 448.318 154.681 L 437.222 134.500 421.611 134.225 L 406 133.949 405.999 143.725 M 533.145 153.009 C 528.591 154.951, 524.935 158.208, 522.959 162.081 C 517.288 173.196, 520.604 185.645, 530.421 190.104 C 544.719 196.597, 559.840 184.444, 557.620 168.243 C 556.300 158.610, 550.576 153.063, 541.286 152.410 C 538.103 152.187, 534.440 152.456, 533.145 153.009 M 353 163.745 C 351.625 166.831, 350.350 169.725, 350.167 170.178 C 349.983 170.630, 352.121 171, 354.917 171 C 357.712 171, 360 170.857, 360 170.682 C 360 169.575, 356.698 159.375, 356.159 158.818 C 355.797 158.442, 354.375 160.660, 353 163.745 M 482.732 256 L 481.020 258 484.475 258 C 486.906 258, 488.247 257.408, 489 256 L 490.070 254 487.257 254 C 485.682 254, 483.691 254.880, 482.732 256 M 319.500 261.195 C 317.299 262.443, 313.042 266.694, 313.497 267.188 C 313.655 267.360, 313.467 269.553, 313.079 272.063 C 312.573 275.336, 312.751 276.978, 313.709 277.873 C 314.443 278.559, 314.737 279.655, 314.362 280.310 C 313.986 280.964, 314.045 281.169, 314.491 280.766 C 314.937 280.362, 315.872 280.812, 316.569 281.766 L 317.836 283.500 331.939 283.741 L 346.041 283.981 347.728 280.444 L 349.415 276.907 353.957 277.204 C 356.940 277.398, 358.414 277.929, 358.250 278.750 C 358.113 279.438, 358.480 280, 359.067 280 C 359.680 280, 359.864 280.853, 359.500 282 L 358.865 284 363.433 284 C 365.945 284, 367.994 283.663, 367.988 283.250 C 367.981 282.837, 366.181 277.574, 363.988 271.553 C 361.794 265.532, 360 260.470, 360 260.303 C 360 260.136, 357.776 260, 355.059 260 L 350.117 260 346.809 266.221 C 344.989 269.642, 343.613 272.792, 343.750 273.221 C 343.887 273.649, 343.523 274, 342.941 274 C 342.359 274, 342.160 274.450, 342.500 275 C 342.840 275.550, 342.615 276, 342 276 C 341.385 276, 341.160 276.450, 341.500 277 C 341.840 277.550, 341.615 278, 341 278 C 340.385 278, 340.131 278.403, 340.435 278.895 C 340.740 279.388, 340.288 280.059, 339.431 280.388 C 338.574 280.717, 338.153 281.439, 338.496 281.993 C 338.838 282.547, 338.589 283, 337.943 283 C 337.120 283, 336.891 281.048, 337.181 276.500 L 337.595 270 331.797 270 L 326 270 326 272.500 C 326 274.056, 326.567 275, 327.500 275 C 328.333 275, 329 275.889, 329 277 C 329 278.467, 328.333 279, 326.500 279 C 323.522 279, 320 275.779, 320 273.056 C 320 271.986, 321.088 269.849, 322.417 268.306 L 324.835 265.500 330.917 265.611 L 337 265.721 337 263.468 C 337 262.228, 336.288 260.941, 335.418 260.607 C 332.748 259.582, 321.619 259.994, 319.500 261.195 M 371.146 269.923 C 371.333 275.381, 371.152 280.181, 370.743 280.590 C 368.692 282.641, 370.189 284, 374.500 284 L 379 284 379.116 277.250 C 379.180 273.538, 379.438 271.288, 379.689 272.250 C 379.941 273.212, 380.550 274, 381.042 274 C 381.534 274, 381.678 274.675, 381.362 275.500 C 381.045 276.326, 381.332 277, 382 277 C 382.668 277, 382.955 277.674, 382.638 278.500 C 382.322 279.325, 382.547 280, 383.138 280 C 383.730 280, 383.969 280.638, 383.670 281.417 C 382.899 283.427, 385.102 284, 393.598 284 L 401.032 284 402.701 280.500 L 404.370 277 409.244 277 C 412.375 277, 413.887 277.373, 413.473 278.044 C 413.118 278.618, 413.355 279.723, 414 280.500 C 414.645 281.277, 414.882 282.382, 414.527 282.956 C 414.115 283.623, 415.529 284, 418.441 284 C 420.948 284, 423.004 283.663, 423.008 283.250 C 423.013 282.837, 421.164 277.438, 418.899 271.250 L 414.782 260 409.990 260 L 405.198 260 402.955 263.750 C 401.721 265.813, 400.702 268.063, 400.689 268.750 C 400.677 269.438, 400.265 270, 399.774 270 C 399.284 270, 399.160 270.450, 399.500 271 C 399.840 271.550, 399.615 272, 399 272 C 398.385 272, 398.160 272.450, 398.500 273 C 398.840 273.550, 398.615 274, 398 274 C 397.385 274, 397.160 274.450, 397.500 275 C 397.840 275.550, 397.615 276, 397 276 C 396.385 276, 396.160 276.450, 396.500 277 C 396.840 277.550, 396.615 278, 396 278 C 395.385 278, 395.131 278.403, 395.435 278.895 C 395.740 279.388, 395.288 280.059, 394.431 280.388 C 393.574 280.717, 393.153 281.439, 393.496 281.993 C 393.838 282.547, 393.699 283, 393.187 283 C 392.674 283, 391.364 280.943, 390.276 278.428 L 388.297 273.857 391.149 271.005 C 394.500 267.654, 394.772 264.772, 392 262 L 390 260 380.403 260 L 370.805 260 371.146 269.923 M 426.673 260.750 C 426.429 261.163, 426.351 265.887, 426.500 271.250 C 426.650 276.613, 426.373 281, 425.886 281 C 425.399 281, 425 281.675, 425 282.500 C 425 283.583, 426.111 284, 429 284 L 433 284 433.015 279.250 C 433.024 276.637, 433.443 273.848, 433.947 273.052 L 434.863 271.604 436.092 274.302 C 436.768 275.786, 437.725 277, 438.220 277 C 438.714 277, 438.840 277.450, 438.500 278 C 438.160 278.550, 438.359 279, 438.941 279 C 439.523 279, 440 279.675, 440 280.500 C 440 281.325, 440.477 282, 441.059 282 C 441.641 282, 441.840 282.450, 441.500 283 C 441.120 283.615, 442.775 284, 445.799 284 L 450.715 284 451.358 277.853 C 451.711 274.473, 452 269.073, 452 265.853 L 452 260 448.500 260 L 445 260 444.838 262.250 C 444.748 263.488, 444.568 266.218, 444.436 268.318 C 444.305 270.418, 444.028 272.305, 443.822 272.511 C 443.616 272.718, 441.884 269.988, 439.973 266.445 L 436.500 260.003 431.809 260.001 C 429.229 260.001, 426.918 260.337, 426.673 260.750 M 454 262.500 L 454 265 458.394 265 L 462.787 265 461.846 269.191 C 461.328 271.497, 461.202 275.772, 461.567 278.691 L 462.230 284 465.522 284 L 468.813 284 469.526 274.500 L 470.238 265 474.119 265 L 478 265 478 262.500 L 478 260 466 260 L 454 260 454 262.500 M 479.250 270.500 C 479.496 276.275, 479.316 281, 478.849 281 C 478.382 281, 478 281.675, 478 282.500 L 478 284 487.016 284 L 496.032 284 497.701 280.500 L 499.370 277 504.292 277 L 509.214 277 508.638 278.500 C 508.322 279.325, 508.529 280, 509.099 280 C 509.680 280, 509.856 280.879, 509.500 282 L 508.865 284 513.433 284 C 515.945 284, 518.004 283.663, 518.008 283.250 C 518.013 282.837, 516.164 277.438, 513.899 271.250 L 509.782 260 504.926 260 C 501.208 260, 499.836 260.438, 499.070 261.869 C 498.520 262.896, 498.355 264.021, 498.702 264.369 C 499.049 264.716, 498.891 265, 498.351 265 C 497.052 265, 492.852 272.519, 493.686 273.352 C 494.042 273.709, 493.782 274, 493.108 274 C 492.434 274, 492.160 274.450, 492.500 275 C 492.840 275.550, 492.671 276, 492.124 276 C 491.577 276, 490.560 277.575, 489.864 279.500 C 487.526 285.964, 486.740 283.326, 487.479 271.500 L 488.197 260 483.500 260 L 478.802 260 479.250 270.500 M 530.804 268.497 C 531.081 273.762, 530.840 277.487, 530.172 278.293 C 529.579 279.007, 529.168 280.584, 529.260 281.796 L 529.426 284 539.213 284 L 549 284 549 281.500 L 549 279 543.440 279 L 537.879 279 538.577 269.500 L 539.274 260 534.816 260 L 530.359 260 530.804 268.497 M 551.403 270 C 551.841 276.356, 551.733 280, 551.108 280 C 550.567 280, 550.192 280.900, 550.275 282 L 550.426 284 554.713 284 L 559 284 559 279.651 C 559 277.259, 559.291 271.859, 559.647 267.651 L 560.293 260 555.504 260 L 550.714 260 551.403 270 M 564.326 262.750 C 563.934 264.262, 563.615 267.975, 563.618 271 C 563.621 274.025, 563.252 276.755, 562.800 277.066 C 562.347 277.378, 562.263 279.065, 562.613 280.816 L 563.250 284 566.125 284 L 569 284 569 279.059 C 569 276.341, 569.402 273.870, 569.893 273.566 C 570.831 272.986, 572.478 277.587, 572.114 279.772 C 571.770 281.841, 574.641 284, 577.736 284 L 580.615 284 582.674 277.750 L 584.734 271.500 585.496 277.750 L 586.258 284 589.129 284 L 592 284 592.014 274.250 C 592.021 268.887, 592.299 263.488, 592.630 262.250 L 593.233 260 588.367 260.015 C 583.054 260.032, 580.356 261.149, 581.431 262.888 C 581.809 263.500, 581.677 264, 581.138 264 C 580.082 264, 578.459 269.637, 578.878 271.850 C 579.019 272.593, 578.712 272.940, 578.196 272.621 C 577.681 272.303, 576.658 269.333, 575.923 266.021 L 574.587 260 569.813 260 L 565.038 260 564.326 262.750 M 596.157 269.750 C 596.258 275.113, 596.010 280.512, 595.603 281.750 L 594.865 284 599.433 284 L 604 284 604 279.651 C 604 277.259, 604.291 271.859, 604.647 267.651 L 605.293 260 600.632 260 L 595.971 260 596.157 269.750 M 606 262.500 L 606 265 610.116 265 L 614.233 265 613.537 271.500 C 613.154 275.074, 613.137 279.349, 613.500 281 L 614.159 284 617.486 284 L 620.813 284 621.526 274.500 L 622.238 265 626.119 265 L 630 265 630 262.500 L 630 260 618 260 L 606 260 606 262.500 M 641.184 260.865 C 640.459 261.325, 639.767 262.379, 639.646 263.210 C 639.524 264.040, 638.649 265.493, 637.703 266.440 C 636.756 267.387, 636.237 268.575, 636.550 269.081 C 636.862 269.586, 636.615 270, 636 270 C 635.385 270, 635.160 270.450, 635.500 271 C 635.840 271.550, 635.615 272, 635 272 C 634.385 272, 634.160 272.450, 634.500 273 C 634.840 273.550, 634.615 274, 634 274 C 633.385 274, 633.138 274.414, 633.450 274.919 C 633.763 275.425, 633.307 276.550, 632.438 277.419 C 631.568 278.289, 631.227 279.014, 631.679 279.032 C 632.130 279.049, 631.626 279.724, 630.559 280.532 C 629.491 281.339, 629.041 282.007, 629.559 282.015 C 630.076 282.024, 629.825 282.467, 629 283 C 627.916 283.701, 628.820 283.974, 632.266 283.985 L 637.032 284 638.701 280.500 L 640.370 277 645.292 277 L 650.214 277 649.651 278.468 C 649.341 279.275, 649.548 280.221, 650.112 280.569 C 650.675 280.917, 650.895 281.832, 650.600 282.601 L 650.063 284 663.781 283.985 C 672.723 283.976, 678.371 283.535, 680 282.721 C 686.359 279.544, 687.949 266.933, 682.573 262.309 L 679.888 260 670.413 260 L 660.937 260 661.077 270.592 C 661.243 283.218, 660.051 285.487, 657.268 277.843 C 656.198 274.904, 654.295 269.688, 653.040 266.250 L 650.756 260 646.628 260.015 C 644.358 260.024, 641.908 260.406, 641.184 260.865 M 699.330 260.775 C 698.687 261.184, 698.012 262.172, 697.830 262.970 C 697.649 263.769, 696.728 265.295, 695.785 266.362 C 694.841 267.430, 694.305 268.685, 694.594 269.151 C 694.882 269.618, 694.615 270, 694 270 C 693.385 270, 693.160 270.450, 693.500 271 C 693.840 271.550, 693.615 272, 693 272 C 692.385 272, 692.160 272.450, 692.500 273 C 692.840 273.550, 692.615 274, 692 274 C 691.385 274, 691.160 274.450, 691.500 275 C 691.840 275.550, 691.615 276, 691 276 C 690.385 276, 690.160 276.450, 690.500 277 C 690.840 277.550, 690.566 278, 689.892 278 C 689.218 278, 688.945 278.279, 689.286 278.619 C 689.626 278.960, 689.251 279.892, 688.452 280.690 C 686.063 283.080, 686.775 284, 691.016 284 L 695.032 284 696.701 280.500 L 698.370 277 703.292 277 L 708.214 277 707.651 278.468 C 707.341 279.275, 707.498 280.190, 708 280.500 C 708.502 280.810, 708.659 281.725, 708.349 282.532 L 707.786 284 712.749 284 L 717.713 284 713.217 272 L 708.721 260 704.611 260.015 C 702.350 260.024, 699.974 260.365, 699.330 260.775 M 379 267.500 C 379 270.122, 381.156 270.820, 383.896 269.086 C 386.003 267.751, 384.411 265, 381.531 265 L 379 265 379 267.500 M 669 272 L 669 279 670.750 278.993 C 671.712 278.990, 673.625 278.202, 675 277.243 C 676.928 275.899, 677.500 274.624, 677.500 271.670 C 677.500 267.427, 675.247 265, 671.309 265 L 669 265 669 272 M 353.044 268.918 C 351.629 271.562, 352.076 272.285, 354.844 271.831 L 356.860 271.500 355.555 269.082 L 354.250 266.664 353.044 268.918 M 408.107 268.799 C 406.591 271.632, 406.694 272, 409 272 C 411.111 272, 411.554 270.424, 410.092 268.115 L 409.215 266.730 408.107 268.799 M 503.079 268.852 C 501.553 271.703, 501.688 272, 504.500 272 C 507.326 272, 507.545 271.303, 505.548 268.667 L 504.159 266.835 503.079 268.852 M 644.107 268.799 C 642.591 271.632, 642.694 272, 645 272 C 647.111 272, 647.554 270.424, 646.092 268.115 L 645.215 266.730 644.107 268.799 M 702.107 268.799 C 700.591 271.632, 700.694 272, 703 272 C 705.111 272, 705.554 270.424, 704.092 268.115 L 703.215 266.730 702.107 268.799" stroke="none" fill="#242526" fill-rule="evenodd"/><path d="M 147.004 18.608 C 143.981 19.420, 139.387 21.303, 136.796 22.792 C 134.204 24.282, 113.287 43.275, 90.315 65 C 27.393 124.505, 24.176 127.709, 20.965 134.069 C 15.183 145.523, 15.058 158.467, 20.621 169.836 C 23.325 175.363, 27.263 179.660, 99.546 255.954 L 126.592 284.500 133.046 287.779 C 144.809 293.756, 157.390 293.980, 168.767 288.413 C 174.671 285.525, 179.002 281.583, 242.436 221.362 L 283.371 182.500 286.650 176.480 C 288.603 172.891, 290.419 167.597, 291.143 163.373 L 292.358 156.286 290.675 149.464 C 289.749 145.712, 287.756 140.485, 286.246 137.847 C 284.040 133.995, 203.178 47.350, 184.562 28.891 C 179.189 23.564, 171.252 19.375, 163.880 17.977 C 157.112 16.694, 153.647 16.823, 147.004 18.608 M 138.500 78.642 C 136.300 78.811, 128.537 79.478, 121.250 80.126 L 108 81.303 108 83.179 C 108 84.211, 106.387 92.280, 104.414 101.109 C 102.442 109.938, 101.028 117.361, 101.270 117.604 C 101.513 117.847, 107.739 117.310, 115.106 116.411 C 123.537 115.383, 133.034 114.928, 140.737 115.184 L 152.974 115.590 155.737 117.647 C 161.930 122.258, 160.945 128.757, 153.486 132.500 L 149.500 134.500 132.250 134.500 C 120.325 134.500, 115 134.841, 115 135.605 C 115 137.676, 113.038 162.483, 112.477 167.500 L 111.918 172.500 130.209 172.500 C 149.490 172.500, 154.847 173.346, 158.781 177.010 C 164.259 182.114, 161.946 189.641, 153.582 193.924 L 148.665 196.443 139.082 196.823 C 126.612 197.317, 106.052 193.620, 92.878 188.513 C 91.614 188.023, 91.342 188.394, 91.649 190.192 C 91.866 191.461, 92.671 200.540, 93.438 210.366 C 94.205 220.193, 95.229 228.629, 95.712 229.112 C 96.195 229.595, 103.321 231.166, 111.546 232.603 L 126.500 235.214 143.500 235.346 C 161.794 235.487, 170.652 234.360, 182.259 230.412 C 199.942 224.398, 211.086 212.990, 214.568 197.339 C 218.441 179.930, 212.034 164.714, 197.750 157.399 C 195.137 156.061, 193 154.792, 193 154.578 C 193 154.365, 194.928 153.060, 197.284 151.679 C 203.294 148.157, 210.687 139.925, 213.648 133.458 C 215.267 129.921, 216.353 125.370, 216.713 120.614 L 217.270 113.247 215.141 106.239 C 211.426 94.009, 201.523 85.517, 186.420 81.612 C 175.641 78.825, 153.799 77.471, 138.500 78.642 M 530.343 270.500 C 530.346 274.900, 530.522 276.576, 530.733 274.224 C 530.945 271.872, 530.942 268.272, 530.727 266.224 C 530.512 264.176, 530.339 266.100, 530.343 270.500 M 312.624 268.539 C 312.281 269.432, 312.056 271.589, 312.125 273.332 L 312.250 276.500 312.998 272 C 313.793 267.216, 313.647 265.871, 312.624 268.539 M 551.272 276 C 551.272 278.475, 551.467 279.488, 551.706 278.250 C 551.944 277.012, 551.944 274.988, 551.706 273.750 C 551.467 272.512, 551.272 273.525, 551.272 276" stroke="none" fill="#72ab46" fill-rule="evenodd"/></svg>