<?xml version="1.0" standalone="no"?>
<!DOCTYPE svg PUBLIC "-//W3C//DTD SVG 20010904//EN"
 "http://www.w3.org/TR/2001/REC-SVG-20010904/DTD/svg10.dtd">
<svg version="1.0" xmlns="http://www.w3.org/2000/svg"
 width="1667.000000pt" height="2050.000000pt" viewBox="0 0 1667.000000 2050.000000"
 preserveAspectRatio="xMidYMid meet">

<g transform="translate(0.000000,2050.000000) scale(0.100000,-0.100000)"
fill="#DE2518" stroke="none">
<path d="M1970 20493 c-513 -39 -981 -253 -1345 -618 -327 -326 -520 -706
-602 -1185 -17 -100 -18 -461 -21 -8350 -2 -5831 0 -8285 8 -8380 52 -655 400
-1243 950 -1606 265 -174 577 -289 895 -329 119 -14 683 -15 6535 -13 6079 3
6410 4 6500 21 360 67 665 200 945 410 103 78 314 289 392 392 221 293 352
600 416 975 l21 125 3 6825 c3 4665 1 6866 -6 6953 -35 421 -196 772 -510
1112 -143 155 -3144 3090 -3228 3158 -380 305 -787 466 -1278 507 -110 9
-9556 12 -9675 3z m9735 -706 c306 -50 520 -140 749 -315 85 -66 3059 -2975
3194 -3125 96 -106 198 -254 241 -347 16 -36 40 -112 53 -170 l23 -105 0
-6900 c0 -6629 -1 -6903 -18 -6985 -62 -289 -187 -521 -391 -726 -202 -201
-417 -318 -711 -388 l-90 -21 -6360 -3 c-4740 -2 -6384 0 -6455 8 -322 39
-608 180 -838 412 -203 205 -332 458 -390 763 -16 84 -17 603 -17 8365 0 7836
1 8280 17 8372 55 301 188 560 398 768 238 237 532 376 865 409 44 5 2227 8
4850 7 4521 -2 4776 -3 4880 -19z"/>
<path d="M7774 16540 c-210 -42 -370 -207 -427 -440 -94 -382 -24 -1217 149
-1787 29 -96 209 -620 243 -706 10 -25 -7 -74 -155 -465 -295 -779 -531 -1344
-886 -2122 l-203 -445 -615 -310 c-622 -314 -780 -400 -1014 -552 -257 -168
-433 -309 -590 -474 -334 -351 -374 -672 -117 -930 130 -130 250 -174 476
-174 154 0 245 15 390 64 289 99 487 232 785 531 347 346 653 744 1020 1325
73 116 177 276 232 356 l99 146 387 126 c618 203 915 282 1623 433 l317 68 90
-83 c514 -471 1161 -796 1817 -913 112 -19 164 -23 375 -23 221 0 255 2 350
23 398 89 596 318 551 639 -22 158 -74 266 -180 376 -216 225 -573 338 -1150
367 -356 18 -709 -5 -1379 -91 -221 -29 -404 -50 -406 -48 -2 2 -133 166 -291
363 -318 397 -566 725 -714 946 -121 181 -281 450 -281 475 0 10 54 225 119
479 163 628 215 878 257 1243 25 208 25 617 1 768 -48 308 -139 503 -308 659
-154 142 -379 213 -565 176z m206 -265 c63 -32 131 -89 156 -131 80 -136 95
-469 38 -864 -19 -134 -125 -659 -162 -810 -52 -207 -156 -550 -163 -537 -15
26 -172 538 -199 647 -78 313 -140 766 -140 1017 1 215 26 352 90 488 46 99
95 155 163 190 44 23 61 26 117 22 36 -2 81 -12 100 -22z m246 -3445 c59 -94
124 -188 383 -550 113 -158 288 -382 396 -505 128 -146 329 -395 323 -400 -2
-2 -91 -22 -198 -44 -714 -145 -945 -205 -1565 -403 -121 -39 -231 -73 -244
-76 -22 -4 -19 4 37 109 33 63 151 339 262 614 290 717 322 800 421 1095 110
328 99 299 110 280 6 -8 39 -62 75 -120z m3264 -1495 c271 -50 450 -155 527
-313 36 -72 38 -81 38 -171 0 -87 -3 -102 -32 -163 -43 -91 -113 -159 -211
-206 l-77 -37 -150 0 c-121 1 -167 5 -240 23 -238 59 -597 194 -926 348 -187
87 -252 125 -488 282 -174 116 -201 137 -182 143 27 11 524 73 741 93 91 9
179 18 195 20 17 2 183 3 370 1 271 -2 359 -6 435 -20z m-5251 -1147 c-25 -46
-221 -350 -299 -463 -359 -519 -788 -1004 -1022 -1156 -219 -141 -394 -200
-505 -170 -101 27 -202 134 -223 235 -56 273 319 653 1055 1066 132 75 984
509 998 510 4 0 3 -10 -4 -22z"/>
<path d="M4980 4510 l0 -1570 255 0 255 0 0 614 0 613 283 6 c381 7 515 29
683 112 144 70 261 188 338 341 79 155 107 288 107 504 -1 230 -48 405 -151
562 -163 248 -344 342 -730 377 -63 6 -323 11 -577 11 l-463 0 0 -1570z m1068
1146 c77 -20 127 -51 180 -113 91 -106 132 -232 132 -410 0 -301 -98 -458
-325 -518 -76 -20 -299 -37 -435 -33 l-105 3 -3 549 -2 549 247 -6 c176 -4
266 -10 311 -21z"/>
<path d="M7302 4513 l3 -1568 450 0 c490 1 570 7 764 56 203 51 352 139 507
301 262 273 400 657 420 1168 23 585 -168 1094 -509 1353 -138 105 -278 169
-469 211 -175 38 -298 46 -750 46 l-418 0 2 -1567z m845 1147 c408 -42 640
-285 724 -757 30 -170 37 -483 15 -660 -47 -367 -174 -624 -376 -758 -138 -92
-280 -125 -531 -125 l-159 0 0 1148 c0 632 3 1152 7 1155 10 10 208 8 320 -3z"/>
<path d="M9950 4510 l0 -1570 258 2 257 3 3 683 2 682 490 0 490 0 0 210 0
210 -490 0 -490 0 0 470 0 470 610 0 610 0 0 205 0 205 -870 0 -870 0 0 -1570z"/>
</g>
</svg>
