<svg version="1.0" xmlns="http://www.w3.org/2000/svg" width="400" height="378.667" viewBox="0 0 300 284"><path d="M0 13.5V27h300V0H0v13.5zM123 46.9c-12.4 4.1-21.7 13.4-26 26-2 6.1-2.1 7.5-1.8 68.4l.3 62.2 2.8 5.9c5.6 12 13.9 19.2 25.7 22.2 19.7 5 40-8.4 44.9-29.7.7-2.7 1.1-27 1.1-62.4 0-61.7-.2-64-4.9-73.3-3.4-6.7-9.9-13-16.7-16.3-5.5-2.7-7.9-3.3-14.7-3.6-4.5-.1-9.3.1-10.7.6zm15.7 30.6c1.2.8 3 3.6 4 6.2 1.7 4.4 1.8 8.8 1.8 56.3 0 45.9-.2 52.1-1.7 57-2.2 7-5.4 10.2-10.3 10.2-4.6 0-7.8-2.9-10.2-9.1-1.6-4.2-1.8-9.3-1.8-58.1V86.5l2.2-4.2c1.3-2.3 3.1-4.7 4-5.2 2.7-1.5 9.6-1.3 12 .4zM0 141.5V233h25l.1-42.8.1-42.7 1.8 6c1 3.3 6 22.5 11.1 42.7l9.2 36.8H72V50H47l-.2 38.5-.3 38.4-10.6-38.2-10.6-38.2-12.6-.3L0 49.9v91.6zM193 141.5V233h25v-43.3l.1-43.2 4.5 14c2.4 7.7 5.6 17.7 7 22.3l2.5 8.3 12.6-.3 12.5-.3 6.7-21.2c3.6-11.7 6.8-21.3 7.1-21.3.3 0 .5 19 .5 42.2v42.3h25l.3-91.3.2-91.2h-25.6l-12.9 46.7c-7 25.8-13.1 47.3-13.4 48-.4.7-6-18-12.5-41.5s-12.5-45.1-13.3-48l-1.4-5.2H193v91.5zM0 270v13h300v-26H0v13z"/></svg>