<svg xmlns="http://www.w3.org/2000/svg" width="742" height="308"><path d="M432.658 115.251c-2.604 2.604-4.643 8.301-4.652 12.999L428 131h13v-2.5c0-3.131.62-3.122 5.32.071 5.063 3.441 9.908 4.165 13.244 1.979 3.224-2.113 5.436-7.206 5.436-12.518V114h-13v2.5c0 3.137-.617 3.124-5.376-.11-2.113-1.435-5.558-2.84-7.656-3.121l-3.816-.512-2.494 2.494m92.533 18.774c-4.021 1.053-9.573 3.147-12.34 4.652-6.759 3.679-14.188 12.018-16.995 19.076l-2.285 5.747-.036 10-.035 10 2.885 6.247c4.886 10.579 14.972 17.949 28.484 20.813 18.126 3.842 38.315-.691 48.516-10.893 14.476-14.475 15.518-39.7 2.248-54.388-10.199-11.289-31.86-16.122-50.442-11.254m85.543-.937c-9.592 2.26-16.651 8.554-18.695 16.671-2.354 9.349.914 15.523 14.47 27.342 10.801 9.418 12.265 11.879 8.317 13.992-3.179 1.701-13.526.451-20.83-2.517l-6.193-2.516.633 7.22c.347 3.971.88 9.33 1.183 11.909l.552 4.688 5.664.812c3.116.446 10.84.811 17.165.81l11.5-.001 5.76-2.698c7.19-3.368 11.374-7.86 13.278-14.255 3.215-10.795-.067-16.275-19.368-32.35-5.575-4.643-6.475-7.426-3.002-9.285 2.888-1.545 12.245-.519 18.083 1.983 2.511 1.077 4.719 1.804 4.907 1.617.188-.188-.068-5.285-.569-11.328l-.911-10.987-7.38-1.097c-8.569-1.275-19.177-1.279-24.564-.01m-270.131 4.662c-2.596 5.509-28.051 53.335-33.727 63.369-2.682 4.74-4.876 8.902-4.876 9.25 0 .347 6.637.62 14.75.606l14.75-.026 4.684-9.974 4.683-9.975h24.907l3.275 10 3.275 10h28.89l-.724-1.75c-2.199-5.313-19.796-52.571-23.459-63L372.728 134H342.37l-1.767 3.75m65.396 5.975c-.002 11.797-2.773 61.525-3.616 64.885l-.6 2.39H428v-12.849c0-7.067.289-16.263.641-20.434l.641-7.585 7.359 12.684c4.047 6.976 9.271 16.165 11.608 20.42l4.251 7.736 15.022.014 15.023.014 1.844-34.25c1.015-18.838 2.065-36.162 2.333-38.5l.488-4.25h-24.904l-.649 11.25c-.356 6.188-.65 15.161-.652 19.941-.003 4.78-.362 8.911-.798 9.181-.436.269-5.786-8.591-11.889-19.691L437.222 134.5l-15.611-.275-15.611-.276-.001 9.776m127.146 9.284c-4.554 1.942-8.21 5.199-10.186 9.072-5.671 11.115-2.355 23.564 7.462 28.023 14.298 6.493 29.419-5.66 27.199-21.861-1.32-9.633-7.044-15.18-16.334-15.833-3.183-.223-6.846.046-8.141.599M353 163.745c-1.375 3.086-2.65 5.98-2.833 6.433-.184.452 1.954.822 4.75.822 2.795 0 5.083-.143 5.083-.318 0-1.107-3.302-11.307-3.841-11.864-.362-.376-1.784 1.842-3.159 4.927M482.732 256l-1.712 2h3.455c2.431 0 3.772-.592 4.525-2l1.07-2h-2.813c-1.575 0-3.566.88-4.525 2M319.5 261.195c-2.201 1.248-6.458 5.499-6.003 5.993.158.172-.03 2.365-.418 4.875-.506 3.273-.328 4.915.63 5.81.734.686 1.028 1.782.653 2.437-.376.654-.317.859.129.456.446-.404 1.381.046 2.078 1l1.267 1.734 14.103.241 14.102.24 1.687-3.537 1.687-3.537 4.542.297c2.983.194 4.457.725 4.293 1.546-.137.688.23 1.25.817 1.25.613 0 .797.853.433 2l-.635 2h4.568c2.512 0 4.561-.337 4.555-.75-.007-.413-1.807-5.676-4-11.697-2.194-6.021-3.988-11.083-3.988-11.25 0-.167-2.224-.303-4.941-.303h-4.942l-3.308 6.221c-1.82 3.421-3.196 6.571-3.059 7 .137.428-.227.779-.809.779-.582 0-.781.45-.441 1s.115 1-.5 1-.84.45-.5 1c.34.55.115 1-.5 1s-.869.403-.565.895c.305.493-.147 1.164-1.004 1.493-.857.329-1.278 1.051-.935 1.605.342.554.093 1.007-.553 1.007-.823 0-1.052-1.952-.762-6.5l.414-6.5H326v2.5c0 1.556.567 2.5 1.5 2.5.833 0 1.5.889 1.5 2 0 1.467-.667 2-2.5 2-2.978 0-6.5-3.221-6.5-5.944 0-1.07 1.088-3.207 2.417-4.75l2.418-2.806 6.082.111 6.083.11v-2.253c0-1.24-.712-2.527-1.582-2.861-2.67-1.025-13.799-.613-15.918.588m51.646 8.728c.187 5.458.006 10.258-.403 10.667-2.051 2.051-.554 3.41 3.757 3.41h4.5l.116-6.75c.064-3.712.322-5.962.573-5 .252.962.861 1.75 1.353 1.75s.636.675.32 1.5c-.317.826-.03 1.5.638 1.5s.955.674.638 1.5c-.316.825-.091 1.5.5 1.5.592 0 .831.638.532 1.417-.771 2.01 1.432 2.583 9.928 2.583h7.434l1.669-3.5 1.669-3.5h4.874c3.131 0 4.643.373 4.229 1.044-.355.574-.118 1.679.527 2.456.645.777.882 1.882.527 2.456-.412.667 1.002 1.044 3.914 1.044 2.507 0 4.563-.337 4.567-.75.005-.413-1.844-5.812-4.109-12L414.782 260h-9.584l-2.243 3.75c-1.234 2.063-2.253 4.313-2.266 5-.012.688-.424 1.25-.915 1.25-.49 0-.614.45-.274 1 .34.55.115 1-.5 1s-.84.45-.5 1c.34.55.115 1-.5 1s-.84.45-.5 1c.34.55.115 1-.5 1s-.84.45-.5 1c.34.55.115 1-.5 1s-.869.403-.565.895c.305.493-.147 1.164-1.004 1.493-.857.329-1.278 1.051-.935 1.605.342.554.203 1.007-.309 1.007-.513 0-1.823-2.057-2.911-4.572l-1.979-4.571 2.852-2.852c3.351-3.351 3.623-6.233.851-9.005l-2-2h-19.195l.341 9.923m55.527-9.173c-.244.413-.322 5.137-.173 10.5.15 5.363-.127 9.75-.614 9.75s-.886.675-.886 1.5c0 1.083 1.111 1.5 4 1.5h4l.015-4.75c.009-2.613.428-5.402.932-6.198l.916-1.448 1.229 2.698c.676 1.484 1.633 2.698 2.128 2.698.494 0 .62.45.28 1-.34.55-.141 1 .441 1s1.059.675 1.059 1.5.477 1.5 1.059 1.5.781.45.441 1c-.38.615 1.275 1 4.299 1h4.916l.643-6.147c.353-3.38.642-8.78.642-12V260h-7l-.162 2.25c-.09 1.238-.27 3.968-.402 6.068-.131 2.1-.408 3.987-.614 4.193-.206.207-1.938-2.523-3.849-6.066l-3.473-6.442-4.691-.002c-2.58 0-4.891.336-5.136.749M454 262.5v2.5H462.787l-.941 4.191c-.518 2.306-.644 6.581-.279 9.5l.663 5.309h6.583l.713-9.5.712-9.5H478v-5h-24v2.5m25.25 8c.246 5.775.066 10.5-.401 10.5s-.849.675-.849 1.5v1.5h18.032l1.669-3.5 1.669-3.5h9.844l-.576 1.5c-.316.825-.109 1.5.461 1.5.581 0 .757.879.401 2l-.635 2h4.568c2.512 0 4.571-.337 4.575-.75.005-.413-1.844-5.812-4.109-12L509.782 260h-4.856c-3.718 0-5.09.438-5.856 1.869-.55 1.027-.715 2.152-.368 2.5.347.347.189.631-.351.631-1.299 0-5.499 7.519-4.665 8.352.356.357.096.648-.578.648-.674 0-.948.45-.608 1 .34.55.171 1-.376 1s-1.564 1.575-2.26 3.5c-2.338 6.464-3.124 3.826-2.385-8l.718-11.5h-9.395l.448 10.5m51.554-2.003c.277 5.265.036 8.99-.632 9.796-.593.714-1.004 2.291-.912 3.503l.166 2.204H549v-5H537.879l.698-9.5.697-9.5h-8.915l.445 8.497M551.403 270c.438 6.356.33 10-.295 10-.541 0-.916.9-.833 2l.151 2H559v-4.349c0-2.392.291-7.792.647-12l.646-7.651h-9.579l.689 10m12.923-7.25c-.392 1.512-.711 5.225-.708 8.25.003 3.025-.366 5.755-.818 6.066-.453.312-.537 1.999-.187 3.75l.637 3.184H569v-4.941c0-2.718.402-5.189.893-5.493.938-.58 2.585 4.021 2.221 6.206-.344 2.069 2.527 4.228 5.622 4.228h2.879l2.059-6.25 2.06-6.25.762 6.25.762 6.25H592l.014-9.75c.007-5.363.285-10.762.616-12l.603-2.25-4.866.015c-5.313.017-8.011 1.134-6.936 2.873.378.612.246 1.112-.293 1.112-1.056 0-2.679 5.637-2.26 7.85.141.743-.166 1.09-.682.771-.515-.318-1.538-3.288-2.273-6.6L574.587 260h-9.549l-.712 2.75m31.831 7c.101 5.363-.147 10.762-.554 12l-.738 2.25H604v-4.349c0-2.392.291-7.792.647-12l.646-7.651h-9.322l.186 9.75M606 262.5v2.5h8.233l-.696 6.5c-.383 3.574-.4 7.849-.037 9.5l.659 3h6.654l.713-9.5.712-9.5H630v-5h-24v2.5m35.184-1.635c-.725.46-1.417 1.514-1.538 2.345-.122.83-.997 2.283-1.943 3.23-.947.947-1.466 2.135-1.153 2.641.312.505.065.919-.55.919s-.84.45-.5 1c.34.55.115 1-.5 1s-.84.45-.5 1c.34.55.115 1-.5 1s-.862.414-.55.919c.313.506-.143 1.631-1.012 2.5-.87.87-1.211 1.595-.759 1.613.451.017-.053.692-1.12 1.5-1.068.807-1.518 1.475-1 1.483.517.009.266.452-.559.985-1.084.701-.18.974 3.266.985l4.766.015 1.669-3.5 1.669-3.5h9.844l-.563 1.468c-.31.807-.103 1.753.461 2.101.563.348.783 1.263.488 2.032l-.537 1.399 13.718-.015c8.942-.009 14.59-.45 16.219-1.264 6.359-3.177 7.949-15.788 2.573-20.412L679.888 260h-18.951l.14 10.592c.166 12.626-1.026 14.895-3.809 7.251-1.07-2.939-2.973-8.155-4.228-11.593l-2.284-6.25-4.128.015c-2.27.009-4.72.391-5.444.85m58.146-.09c-.643.409-1.318 1.397-1.5 2.195-.181.799-1.102 2.325-2.045 3.392-.944 1.068-1.48 2.323-1.191 2.789.288.467.021.849-.594.849s-.84.45-.5 1c.34.55.115 1-.5 1s-.84.45-.5 1c.34.55.115 1-.5 1s-.84.45-.5 1c.34.55.115 1-.5 1s-.84.45-.5 1c.34.55.066 1-.608 1-.674 0-.947.279-.606.619.34.341-.035 1.273-.834 2.071-2.389 2.39-1.677 3.31 2.564 3.31h4.016l1.669-3.5 1.669-3.5h9.844l-.563 1.468c-.31.807-.153 1.722.349 2.032.502.31.659 1.225.349 2.032l-.563 1.468h9.927l-4.496-12-4.496-12-4.11.015c-2.261.009-4.637.35-5.281.76M379 267.5c0 2.622 2.156 3.32 4.896 1.586 2.107-1.335.515-4.086-2.365-4.086H379v2.5m290 4.5v7l1.75-.007c.962-.003 2.875-.791 4.25-1.75 1.928-1.344 2.5-2.619 2.5-5.573 0-4.243-2.253-6.67-6.191-6.67H669v7m-315.956-3.082c-1.415 2.644-.968 3.367 1.8 2.913l2.016-.331-1.305-2.418-1.305-2.418-1.206 2.254m55.063-.119c-1.516 2.833-1.413 3.201.893 3.201 2.111 0 2.554-1.576 1.092-3.885l-.877-1.385-1.108 2.069m94.972.053c-1.526 2.851-1.391 3.148 1.421 3.148 2.826 0 3.045-.697 1.048-3.333l-1.389-1.832-1.08 2.017m141.028-.053c-1.516 2.833-1.413 3.201.893 3.201 2.111 0 2.554-1.576 1.092-3.885l-.877-1.385-1.108 2.069m58 0c-1.516 2.833-1.413 3.201.893 3.201 2.111 0 2.554-1.576 1.092-3.885l-.877-1.385-1.108 2.069" fill="#242526" fill-rule="evenodd"/><path d="M147.004 18.608c-3.023.812-7.617 2.695-10.208 4.184-2.592 1.49-23.509 20.483-46.481 42.208-62.922 59.505-66.139 62.709-69.35 69.069-5.782 11.454-5.907 24.398-.344 35.767 2.704 5.527 6.642 9.824 78.925 86.118l27.046 28.546 6.454 3.279c11.763 5.977 24.344 6.201 35.721.634 5.904-2.888 10.235-6.83 73.669-67.051l40.935-38.862 3.279-6.02c1.953-3.589 3.769-8.883 4.493-13.107l1.215-7.087-1.683-6.822c-.926-3.752-2.919-8.979-4.429-11.617-2.206-3.852-83.068-90.497-101.684-108.956-5.373-5.327-13.31-9.516-20.682-10.914-6.768-1.283-10.233-1.154-16.876.631M138.5 78.642c-2.2.169-9.963.836-17.25 1.484L108 81.303v1.876c0 1.032-1.613 9.101-3.586 17.93-1.972 8.829-3.386 16.252-3.144 16.495.243.243 6.469-.294 13.836-1.193 8.431-1.028 17.928-1.483 25.631-1.227l12.237.406 2.763 2.057c6.193 4.611 5.208 11.11-2.251 14.853l-3.986 2h-17.25c-11.925 0-17.25.341-17.25 1.105 0 2.071-1.962 26.878-2.523 31.895l-.559 5h18.291c19.281 0 24.638.846 28.572 4.51 5.478 5.104 3.165 12.631-5.199 16.914l-4.917 2.519-9.583.38c-12.47.494-33.03-3.203-46.204-8.31-1.264-.49-1.536-.119-1.229 1.679.217 1.269 1.022 10.348 1.789 20.174.767 9.827 1.791 18.263 2.274 18.746.483.483 7.609 2.054 15.834 3.491l14.954 2.611 17 .132c18.294.141 27.152-.986 38.759-4.934 17.683-6.014 28.827-17.422 32.309-33.073 3.873-17.409-2.534-32.625-16.818-39.94-2.613-1.338-4.75-2.607-4.75-2.821 0-.213 1.928-1.518 4.284-2.899 6.01-3.522 13.403-11.754 16.364-18.221 1.619-3.537 2.705-8.088 3.065-12.844l.557-7.367-2.129-7.008c-3.715-12.23-13.618-20.722-28.721-24.627-10.779-2.787-32.621-4.141-47.92-2.97M530.343 270.5c.003 4.4.179 6.076.39 3.724.212-2.352.209-5.952-.006-8s-.388-.124-.384 4.276m-217.719-1.961c-.343.893-.568 3.05-.499 4.793l.125 3.168.748-4.5c.795-4.784.649-6.129-.374-3.461M551.272 276c0 2.475.195 3.488.434 2.25.238-1.238.238-3.262 0-4.5-.239-1.238-.434-.225-.434 2.25" fill="#72ab46" fill-rule="evenodd"/></svg>