<svg version="1.0" xmlns="http://www.w3.org/2000/svg" width="2222.667" height="2733.333" viewBox="0 0 1667 2050"><g fill="#DE2518"><path d="M197 .7C145.7 4.6 98.9 26 62.5 62.5 29.8 95.1 10.5 133.1 2.3 181 .6 191 .5 227.1.2 1016c-.2 583.1 0 828.5.8 838 5.2 65.5 40 124.3 95 160.6 26.5 17.4 57.7 28.9 89.5 32.9 11.9 1.4 68.3 1.5 653.5 1.3 607.9-.3 641-.4 650-2.1 36-6.7 66.5-20 94.5-41 10.3-7.8 31.4-28.9 39.2-39.2 22.1-29.3 35.2-60 41.6-97.5l2.1-12.5.3-682.5c.3-466.5.1-686.6-.6-695.3-3.5-42.1-19.6-77.2-51-111.2-14.3-15.5-314.4-309-322.8-315.8-38-30.5-78.7-46.6-127.8-50.7-11-.9-955.6-1.2-967.5-.3zm973.5 70.6c30.6 5 52 14 74.9 31.5 8.5 6.6 305.9 297.5 319.4 312.5 9.6 10.6 19.8 25.4 24.1 34.7 1.6 3.6 4 11.2 5.3 17l2.3 10.5v690c0 662.9-.1 690.3-1.8 698.5-6.2 28.9-18.7 52.1-39.1 72.6-20.2 20.1-41.7 31.8-71.1 38.8l-9 2.1-636 .3c-474 .2-638.4 0-645.5-.8-32.2-3.9-60.8-18-83.8-41.2-20.3-20.5-33.2-45.8-39-76.3-1.6-8.4-1.7-60.3-1.7-836.5 0-783.6.1-828 1.7-837.2 5.5-30.1 18.8-56 39.8-76.8 23.8-23.7 53.2-37.6 86.5-40.9 4.4-.5 222.7-.8 485-.7 452.1.2 477.6.3 488 1.9z"/><path d="M777.4 396c-21 4.2-37 20.7-42.7 44-9.4 38.2-2.4 121.7 14.9 178.7 2.9 9.6 20.9 62 24.3 70.6 1 2.5-.7 7.4-15.5 46.5-29.5 77.9-53.1 134.4-88.6 212.2l-20.3 44.5-61.5 31c-62.2 31.4-78 40-101.4 55.2-25.7 16.8-43.3 30.9-59 47.4-33.4 35.1-37.4 67.2-11.7 93 13 13 25 17.4 47.6 17.4 15.4 0 24.5-1.5 39-6.4 28.9-9.9 48.7-23.2 78.5-53.1 34.7-34.6 65.3-74.4 102-132.5 7.3-11.6 17.7-27.6 23.2-35.6l9.9-14.6 38.7-12.6c61.8-20.3 91.5-28.2 162.3-43.3l31.7-6.8 9 8.3c51.4 47.1 116.1 79.6 181.7 91.3 11.2 1.9 16.4 2.3 37.5 2.3 22.1 0 25.5-.2 35-2.3 39.8-8.9 59.6-31.8 55.1-63.9-2.2-15.8-7.4-26.6-18-37.6-21.6-22.5-57.3-33.8-115-36.7-35.6-1.8-70.9.5-137.9 9.1-22.1 2.9-40.4 5-40.6 4.8-.2-.2-13.3-16.6-29.1-36.3-31.8-39.7-56.6-72.5-71.4-94.6-12.1-18.1-28.1-45-28.1-47.5 0-1 5.4-22.5 11.9-47.9 16.3-62.8 21.5-87.8 25.7-124.3 2.5-20.8 2.5-61.7.1-76.8-4.8-30.8-13.9-50.3-30.8-65.9-15.4-14.2-37.9-21.3-56.5-17.6zm20.6 26.5c6.3 3.2 13.1 8.9 15.6 13.1 8 13.6 9.5 46.9 3.8 86.4-1.9 13.4-12.5 65.9-16.2 81-5.2 20.7-15.6 55-16.3 53.7-1.5-2.6-17.2-53.8-19.9-64.7-7.8-31.3-14-76.6-14-101.7.1-21.5 2.6-35.2 9-48.8 4.6-9.9 9.5-15.5 16.3-19 4.4-2.3 6.1-2.6 11.7-2.2 3.6.2 8.1 1.2 10 2.2zM822.6 767c5.9 9.4 12.4 18.8 38.3 55 11.3 15.8 28.8 38.2 39.6 50.5 12.8 14.6 32.9 39.5 32.3 40-.2.2-9.1 2.2-19.8 4.4-71.4 14.5-94.5 20.5-156.5 40.3-12.1 3.9-23.1 7.3-24.4 7.6-2.2.4-1.9-.4 3.7-10.9 3.3-6.3 15.1-33.9 26.2-61.4 29-71.7 32.2-80 42.1-109.5 11-32.8 9.9-29.9 11-28 .6.8 3.9 6.2 7.5 12zM1149 916.5c27.1 5 45 15.5 52.7 31.3 3.6 7.2 3.8 8.1 3.8 17.1 0 8.7-.3 10.2-3.2 16.3-4.3 9.1-11.3 15.9-21.1 20.6l-7.7 3.7h-15c-12.1-.1-16.7-.5-24-2.3-23.8-5.9-59.7-19.4-92.6-34.8-18.7-8.7-25.2-12.5-48.8-28.2-17.4-11.6-20.1-13.7-18.2-14.3 2.7-1.1 52.4-7.3 74.1-9.3 9.1-.9 17.9-1.8 19.5-2 1.7-.2 18.3-.3 37-.1 27.1.2 35.9.6 43.5 2zm-525.1 114.7c-2.5 4.6-22.1 35-29.9 46.3-35.9 51.9-78.8 100.4-102.2 115.6-21.9 14.1-39.4 20-50.5 17-10.1-2.7-20.2-13.4-22.3-23.5-5.6-27.3 31.9-65.3 105.5-106.6 13.2-7.5 98.4-50.9 99.8-51 .4 0 .3 1-.4 2.2zM498 1599v157h51V1633.3l28.3-.6c38.1-.7 51.5-2.9 68.3-11.2 14.4-7 26.1-18.8 33.8-34.1 7.9-15.5 10.7-28.8 10.7-50.4-.1-23-4.8-40.5-15.1-56.2-16.3-24.8-34.4-34.2-73-37.7-6.3-.6-32.3-1.1-57.7-1.1H498v157zm106.8-114.6c7.7 2 12.7 5.1 18 11.3 9.1 10.6 13.2 23.2 13.2 41 0 30.1-9.8 45.8-32.5 51.8-7.6 2-29.9 3.7-43.5 3.3l-10.5-.3-.3-54.9-.2-54.9 24.7.6c17.6.4 26.6 1 31.1 2.1zM730.2 1598.7l.3 156.8h45c49-.1 57-.7 76.4-5.6 20.3-5.1 35.2-13.9 50.7-30.1 26.2-27.3 40-65.7 42-116.8 2.3-58.5-16.8-109.4-50.9-135.3-13.8-10.5-27.8-16.9-46.9-21.1-17.5-3.8-29.8-4.6-75-4.6H730l.2 156.7zm84.5-114.7c40.8 4.2 64 28.5 72.4 75.7 3 17 3.7 48.3 1.5 66-4.7 36.7-17.4 62.4-37.6 75.8-13.8 9.2-28 12.5-53.1 12.5H782v-114.8c0-63.2.3-115.2.7-115.5 1-1 20.8-.8 32 .3zM995 1599v157l25.8-.2 25.7-.3.3-68.3.2-68.2h98v-42h-98v-94h122v-41H995v157z"/></g></svg>